<?xml version="1.0" standalone="no"?>
<!DOCTYPE svg PUBLIC "-//W3C//DTD SVG 20010904//EN"
 "http://www.w3.org/TR/2001/REC-SVG-20010904/DTD/svg10.dtd">
<svg version="1.0" xmlns="http://www.w3.org/2000/svg"
 width="1259.000000pt" height="670.000000pt" viewBox="0 0 1259.000000 670.000000"
 preserveAspectRatio="xMidYMid meet">

<g transform="translate(0.000000,670.000000) scale(0.100000,-0.100000)"
fill="#000000" stroke="none">
<path d="M1915 5440 c-6 -26 -9 -29 -36 -23 -16 3 -29 2 -29 -1 0 -21 57 -99
94 -130 29 -24 57 -62 86 -118 49 -94 48 -93 56 -86 3 4 -15 46 -39 95 -26 50
-48 109 -52 138 -7 50 -51 155 -66 155 -4 0 -10 -13 -14 -30z"/>
<path d="M1740 5391 c0 -37 -12 -51 -41 -51 l-29 0 30 -42 c17 -24 54 -59 83
-78 36 -24 70 -61 110 -120 51 -75 77 -104 77 -86 0 3 -27 45 -59 92 -35 50
-69 113 -82 152 -18 55 -73 152 -86 152 -2 0 -3 -9 -3 -19z"/>
<path d="M1470 5325 c0 -3 14 -34 32 -70 30 -61 33 -64 50 -48 21 19 2 31 168
-117 58 -52 121 -108 139 -123 l34 -28 -34 -29 c-20 -17 -41 -27 -52 -24 -9 3
-58 29 -107 58 -60 35 -102 68 -126 99 -30 38 -107 97 -128 97 -3 0 -3 -13 0
-29 5 -25 2 -30 -27 -40 l-34 -12 51 -28 c28 -16 76 -34 108 -40 37 -7 92 -30
150 -62 126 -72 120 -63 78 -119 l-36 -48 -50 19 c-94 37 -135 60 -165 94 -29
33 -64 56 -108 69 -21 7 -22 5 -17 -22 5 -26 2 -32 -22 -45 l-29 -15 45 -20
c25 -10 74 -22 110 -26 35 -3 101 -20 146 -37 l82 -31 -9 -30 c-4 -17 -6 -35
-3 -39 20 -32 -217 37 -384 112 l-73 32 -170 -169 c-93 -93 -169 -172 -169
-175 0 -3 33 -28 73 -54 259 -172 413 -340 474 -519 22 -67 27 -97 26 -176 -1
-179 -63 -318 -294 -665 -172 -259 -226 -351 -274 -463 -56 -134 -69 -193 -69
-327 0 -109 3 -128 31 -208 62 -177 156 -293 287 -357 104 -51 193 -68 418
-80 380 -21 531 -42 694 -96 101 -33 239 -102 332 -166 70 -47 74 -49 95 -33
217 157 374 224 614 260 59 9 219 20 354 25 261 10 299 13 393 37 167 41 287
158 367 358 89 224 74 445 -46 685 -25 49 -45 92 -45 94 0 3 86 -60 191 -139
105 -80 195 -145 200 -145 41 0 121 65 150 121 10 21 19 40 19 42 0 17 -471
431 -746 657 -281 230 -291 239 -305 288 -23 78 -18 235 9 314 58 169 236 362
476 517 l68 45 -28 24 c-16 14 -89 79 -163 146 -196 178 -159 164 -294 111
-173 -68 -387 -117 -562 -131 -198 -15 -462 44 -655 147 l-56 29 -59 -24 c-33
-13 -73 -31 -90 -40 -16 -9 -34 -16 -38 -16 -5 0 -62 48 -127 108 -96 86 -119
112 -120 134 -1 65 -48 106 -106 92 -52 -12 -135 -59 -192 -109 -14 -12 -26
-16 -30 -10 -6 9 -220 200 -279 251 -27 22 -28 32 -8 53 13 15 7 19 -60 43
-41 15 -75 25 -75 23z m1425 -645 c233 -78 465 -87 734 -29 92 20 271 78 362
117 l46 20 162 -145 162 -145 -81 -55 c-110 -76 -239 -190 -310 -276 -226
-273 -213 -543 42 -922 41 -60 126 -186 189 -280 209 -310 280 -498 266 -704
-8 -114 -28 -187 -83 -299 -90 -182 -195 -259 -403 -293 -31 -5 -171 -14 -311
-19 -289 -11 -413 -27 -552 -70 -135 -42 -218 -81 -331 -157 l-98 -65 -69 45
c-239 160 -481 227 -893 247 -356 18 -481 43 -595 117 -173 114 -280 386 -242
613 29 172 102 320 328 658 244 367 307 512 306 707 -1 117 -21 189 -86 300
-56 96 -242 279 -376 370 l-103 70 143 142 c79 78 149 145 157 148 8 3 65 -15
128 -40 411 -167 804 -161 1192 17 l74 34 75 -38 c42 -21 117 -51 167 -68z"/>
<path d="M2640 4721 c0 -16 -6 -21 -27 -21 -25 0 -26 -1 -8 -20 12 -14 15 -27
10 -47 -6 -27 -6 -27 14 -9 21 19 21 19 42 0 20 -18 20 -18 14 9 -5 20 -2 33
10 47 18 19 17 20 -8 20 -17 0 -27 5 -27 14 0 8 -4 18 -10 21 -5 3 -10 -3 -10
-14z"/>
<path d="M1237 4633 c-15 -15 -20 -16 -38 -5 -20 13 -21 12 -14 -16 5 -24 2
-33 -17 -47 l-23 -17 31 7 c28 5 32 3 39 -22 l8 -28 9 33 c7 26 14 32 36 32
l27 0 -22 18 c-16 12 -21 23 -17 40 8 27 4 28 -19 5z"/>
<path d="M4100 4618 c0 -16 -8 -29 -22 -36 l-23 -11 23 0 c16 -1 27 -11 36
-33 13 -30 14 -30 21 -9 6 19 12 21 33 16 26 -6 26 -6 7 15 -16 17 -17 24 -7
40 17 28 15 32 -9 20 -16 -9 -25 -8 -40 6 -18 16 -19 16 -19 -8z"/>
<path d="M3907 4594 c-63 -33 -233 -89 -327 -108 -324 -66 -636 -34 -864 87
l-64 33 -67 -33 c-330 -167 -775 -164 -1149 6 -38 17 -73 28 -77 24 -60 -67
-129 -149 -129 -155 0 -4 30 -28 67 -55 272 -191 407 -352 447 -536 l6 -27
907 2 906 3 12 50 c17 72 30 101 80 174 73 109 247 271 409 381 l48 32 -73 74
c-41 41 -76 74 -79 74 -3 -1 -27 -12 -53 -26z m108 -64 c29 -30 45 -53 40 -58
-6 -5 -53 -41 -105 -80 -217 -161 -364 -338 -401 -486 l-11 -46 -882 0 -881 0
-19 65 c-38 132 -187 306 -393 459 l-93 68 40 48 c66 79 60 77 148 37 188 -85
324 -112 577 -112 187 0 207 2 306 28 106 27 198 61 272 99 l39 19 83 -40
c305 -150 748 -145 1126 12 46 19 89 35 94 36 6 0 33 -21 60 -49z"/>
<path d="M2642 4486 c-7 -17 -20 -26 -34 -26 -21 0 -21 -1 -3 -13 12 -10 16
-22 13 -40 -6 -29 1 -34 20 -15 10 10 17 10 34 -1 19 -12 20 -11 15 10 -4 15
0 30 10 41 15 17 15 18 -5 18 -13 0 -23 9 -29 26 l-9 26 -12 -26z"/>
<path d="M1840 4160 c0 -124 12 -150 70 -150 61 0 85 57 78 190 -3 59 -5 65
-25 68 -22 3 -23 1 -23 -86 0 -103 -5 -122 -30 -122 -25 0 -30 19 -30 121 0
82 -1 89 -20 89 -19 0 -20 -7 -20 -110z"/>
<path d="M2062 4144 c3 -121 4 -129 23 -129 17 0 21 8 25 54 l5 53 27 -56 c23
-46 32 -56 53 -56 31 0 31 1 0 50 -14 22 -25 42 -25 44 0 3 11 16 25 30 30 30
33 74 6 107 -14 18 -31 23 -80 27 l-62 4 3 -128z m89 76 c29 -16 25 -58 -7
-70 -14 -6 -27 -10 -30 -10 -2 0 -4 20 -4 45 0 46 7 53 41 35z"/>
<path d="M2302 4148 c-23 -68 -42 -126 -42 -130 0 -5 9 -8 19 -8 12 0 23 11
30 30 9 27 14 30 50 30 35 0 43 -4 56 -30 9 -18 23 -30 35 -30 11 0 20 3 19 8
0 4 -19 61 -43 127 -59 166 -68 166 -124 3z m87 -30 c1 -5 -10 -8 -24 -8 -28
0 -31 13 -14 57 l11 28 13 -35 c8 -19 14 -38 14 -42z"/>
<path d="M2551 4244 c-87 -73 -40 -234 69 -234 30 0 48 8 75 31 19 17 32 35
29 40 -8 14 -44 11 -60 -6 -23 -22 -62 -18 -89 10 -66 65 17 176 91 120 21
-16 64 -20 64 -6 0 5 -14 23 -31 40 -41 41 -103 43 -148 5z"/>
<path d="M2838 4247 c-36 -30 -48 -58 -48 -109 0 -97 88 -156 170 -113 26 13
50 42 50 59 0 12 -39 5 -67 -11 -42 -23 -79 -11 -100 33 -17 34 -16 37 2 72
17 31 26 38 56 40 23 2 40 -2 49 -12 14 -18 60 -22 60 -5 0 6 -13 24 -29 40
-38 38 -102 41 -143 6z"/>
<path d="M3135 4258 c-3 -7 -23 -64 -45 -126 -22 -63 -40 -116 -40 -118 0 -2
9 -4 21 -4 14 0 24 10 32 30 10 27 16 30 53 30 38 0 43 -3 53 -30 7 -21 17
-30 32 -30 25 0 24 6 -28 158 -28 81 -39 102 -55 102 -10 0 -21 -6 -23 -12z
m45 -135 c0 -7 -12 -13 -26 -13 -20 0 -25 4 -20 16 3 9 9 28 13 42 l6 27 13
-30 c7 -16 13 -36 14 -42z"/>
<path d="M3314 4257 c-2 -7 -3 -65 -2 -128 3 -106 4 -114 23 -114 18 0 21 8
25 78 l5 78 45 -78 c33 -56 51 -78 65 -78 19 0 20 8 23 128 l3 127 -25 0 c-24
0 -25 -3 -28 -76 l-3 -75 -45 75 c-43 74 -73 96 -86 63z"/>
<path d="M1587 3978 c-6 -23 -13 -28 -40 -28 l-32 -1 27 -20 c23 -17 26 -24
17 -46 -11 -31 -7 -39 11 -18 16 20 29 19 53 -2 19 -18 19 -17 12 15 -5 27 -3
36 17 52 l23 19 -31 1 c-24 0 -32 6 -40 28 l-10 27 -7 -27z"/>
<path d="M3682 3933 c-9 -27 -16 -33 -39 -33 l-28 0 24 -19 c19 -14 22 -24 17
-45 -7 -29 -4 -31 24 -14 15 10 22 9 39 -6 20 -18 20 -18 14 17 -4 28 -1 37
18 51 l23 16 -31 0 c-28 0 -34 4 -41 33 l-8 32 -12 -32z"/>
<path d="M2198 3753 l-448 -3 0 -39 c0 -130 -88 -326 -277 -611 -229 -346
-292 -465 -328 -620 -54 -237 23 -493 177 -583 93 -54 128 -59 493 -67 353 -8
431 -17 565 -61 102 -33 168 -66 251 -124 43 -30 81 -55 84 -55 3 0 33 22 68
48 87 68 158 106 262 141 145 48 250 61 555 67 312 6 391 17 465 66 98 65 142
205 132 425 -10 242 -90 426 -342 787 -113 162 -161 239 -210 337 -40 78 -75
201 -75 261 l0 38 -462 -2 c-255 -2 -664 -4 -910 -5z m1481 -415 c34 -57 115
-181 180 -277 129 -188 159 -237 149 -247 -4 -3 -42 -16 -85 -29 -95 -28
-2100 -646 -2413 -744 l-225 -70 -32 36 c-35 38 -67 113 -85 196 -17 83 -4
249 27 342 43 126 69 172 107 183 179 56 374 117 468 146 63 19 329 101 590
181 261 81 644 199 850 262 206 63 377 117 379 119 15 14 35 -8 90 -98z"/>
<path d="M1556 3528 c-27 -15 -18 -38 20 -54 20 -8 38 -13 41 -10 3 3 -6 8
-20 11 -15 4 -32 14 -38 22 -20 23 9 35 43 17 15 -8 28 -11 28 -6 0 14 -56 30
-74 20z"/>
<path d="M3803 3458 c9 -25 -14 -34 -31 -12 -14 18 -14 18 -8 1 9 -26 -3 -41
-20 -26 -12 10 -13 9 -8 -5 8 -22 24 -20 59 8 25 21 28 27 16 38 -12 11 -13
10 -8 -4z"/>
<path d="M1520 3436 c0 -2 7 -7 16 -10 8 -3 12 -2 9 4 -6 10 -25 14 -25 6z"/>
<path d="M1565 3410 c4 -6 -8 -10 -29 -10 -19 0 -37 -4 -40 -8 -6 -9 53 -47
61 -39 2 3 -8 12 -24 21 l-28 15 30 1 c39 0 63 15 40 23 -9 4 -13 3 -10 -3z"/>
<path d="M3823 3378 c-4 -7 -6 -21 -5 -30 2 -11 -3 -18 -13 -18 -12 0 -15 5
-10 18 5 14 4 15 -6 5 -10 -10 -10 -16 -2 -24 18 -18 45 -2 41 23 -2 15 2 23
12 23 8 0 14 -6 12 -13 -1 -8 2 -11 7 -7 14 8 2 35 -14 35 -8 0 -17 -6 -22
-12z"/>
<path d="M1464 3331 c4 -6 22 -18 39 -27 30 -14 31 -14 12 1 -30 25 -59 39
-51 26z"/>
<path d="M3850 3289 c-35 -31 -22 -30 14 0 18 15 19 15 11 -4 -13 -35 -18 -65
-9 -65 12 1 71 50 60 50 -6 0 -20 -10 -33 -22 -24 -23 -31 -11 -12 23 21 40 6
49 -31 18z"/>
<path d="M1420 3259 c0 -5 14 -23 31 -41 l31 -33 -23 34 -23 34 38 -6 c51 -8
38 3 -14 13 -22 4 -40 3 -40 -1z"/>
<path d="M3964 3207 c10 -30 -4 -40 -26 -20 -20 18 -21 18 -9 -4 14 -27 -2
-41 -27 -21 -15 12 -16 11 -3 -4 18 -23 25 -23 57 5 23 20 25 26 15 43 -11 17
-12 17 -7 1z"/>
<path d="M1360 3175 c-8 -9 -8 -15 -2 -15 6 0 12 5 14 12 2 6 10 8 17 4 7 -5
10 -15 6 -23 -4 -13 -3 -14 9 -4 20 17 41 4 25 -15 -6 -8 -9 -17 -6 -20 3 -3
10 3 16 14 9 18 7 24 -18 41 -35 25 -45 26 -61 6z"/>
<path d="M3972 3119 c-18 -12 -31 -24 -28 -26 2 -3 18 6 35 18 25 18 34 20 44
10 9 -10 5 -18 -23 -42 -19 -17 -26 -26 -15 -21 11 6 29 19 39 31 15 17 16 23
6 36 -16 19 -18 19 -58 -6z"/>
<path d="M1345 3090 c32 -21 39 -40 17 -48 -7 -2 -16 5 -19 17 -3 14 -13 21
-27 20 -17 -1 -17 -2 -3 -6 9 -2 17 -10 17 -18 0 -23 32 -27 53 -7 18 19 18
20 -16 41 -43 27 -62 28 -22 1z"/>
<path d="M4040 3020 c13 -24 25 -27 16 -4 -4 11 -1 14 12 12 22 -4 27 -41 8
-57 -20 -17 -44 -8 -56 21 -6 16 -9 18 -9 6 -1 -18 24 -48 40 -48 24 0 49 22
49 43 0 29 -18 47 -47 47 -21 0 -22 -3 -13 -20z"/>
<path d="M1253 3004 c-9 -25 12 -39 41 -26 28 12 41 5 25 -15 -8 -9 -8 -13 -1
-13 18 0 24 20 12 35 -9 11 -17 12 -31 4 -27 -14 -47 0 -24 18 17 12 17 13 2
13 -10 0 -20 -7 -24 -16z"/>
<path d="M4104 2915 c-15 -20 -24 -38 -21 -41 3 -3 10 4 17 15 6 12 16 19 22
15 7 -4 6 -9 -3 -15 -9 -6 -2 -9 21 -8 32 0 33 1 11 10 -18 7 -22 15 -19 34 7
33 4 32 -28 -10z"/>
<path d="M1221 2937 c32 -26 69 -47 69 -40 0 9 -52 43 -66 43 -4 0 -5 -1 -3
-3z"/>
<path d="M1175 2870 c-9 -28 3 -60 23 -60 16 1 15 2 0 11 -18 10 -24 40 -12
52 12 12 64 -22 58 -38 -4 -8 -11 -15 -17 -15 -6 0 -7 -3 -4 -6 8 -9 37 15 37
30 0 11 -53 46 -70 46 -5 0 -12 -9 -15 -20z"/>
<path d="M4186 2833 c-4 -4 -17 -8 -29 -8 -15 0 -23 -7 -25 -23 -4 -30 19 -37
57 -17 43 21 39 29 -4 8 -37 -18 -51 -14 -41 12 4 11 13 14 25 10 12 -3 21 0
25 10 6 16 3 19 -8 8z"/>
<path d="M1145 2778 c7 -18 -6 -35 -30 -41 -15 -4 -14 -5 8 -6 18 -1 27 4 27
14 0 19 16 20 23 1 3 -8 1 -17 -6 -20 -7 -2 -2 -5 11 -5 l23 -1 -21 30 c-23
33 -42 48 -35 28z"/>
<path d="M4213 2734 c-18 -14 -33 -30 -33 -35 0 -5 21 -8 48 -8 26 1 40 3 30
6 -22 6 -31 32 -17 49 17 21 8 17 -28 -12z m17 -24 c0 -5 -7 -10 -16 -10 -8 0
-12 5 -9 10 3 6 10 10 16 10 5 0 9 -4 9 -10z"/>
<path d="M1077 2683 c-4 -3 -7 -18 -7 -33 0 -36 38 -55 69 -34 30 22 26 38
-14 57 -41 19 -39 19 -48 10z m43 -18 c35 -18 35 -19 14 -39 -21 -22 -54 -4
-54 29 0 29 2 30 40 10z"/>
<path d="M4298 2650 c17 -19 15 -45 -4 -61 -20 -16 -46 -2 -55 32 -7 23 -7 23
-8 -4 -1 -20 6 -30 23 -38 50 -23 92 39 49 72 -15 11 -16 11 -5 -1z"/>
<path d="M4285 2530 c-27 -7 -28 -8 -5 -8 14 0 34 3 45 8 25 11 2 11 -40 0z"/>
<path d="M1005 2459 c-8 -24 19 -59 45 -59 20 0 46 27 36 37 -3 3 -6 2 -6 -4
0 -17 -29 -24 -51 -13 -24 13 -25 36 -1 49 15 9 16 10 0 11 -9 0 -20 -9 -23
-21z"/>
<path d="M4275 2470 c-14 -7 -8 -8 20 -4 42 7 42 4 -9 -34 l-29 -22 49 2 c36
1 40 2 17 5 l-32 4 32 29 32 29 -30 0 c-16 0 -39 -4 -50 -9z"/>
<path d="M1065 2460 c28 -12 37 -12 30 0 -3 6 -16 10 -28 9 -21 0 -21 -1 -2
-9z"/>
<path d="M991 2338 c0 -16 2 -18 6 -8 3 8 11 18 17 22 7 5 4 8 -6 8 -12 0 -18
-7 -17 -22z"/>
<path d="M1031 2338 c1 -17 2 -19 6 -5 2 9 11 17 18 17 7 0 16 -8 18 -17 4
-14 5 -12 6 5 1 17 -4 22 -24 22 -20 0 -25 -5 -24 -22z"/>
<path d="M4281 2278 c-1 -27 1 -28 44 -28 40 0 45 2 44 23 -1 16 -2 18 -6 5
-2 -10 -11 -18 -18 -18 -7 0 -16 8 -18 18 -4 16 -5 16 -6 0 -2 -26 -29 -22
-34 5 -4 19 -4 18 -6 -5z"/>
<path d="M1013 2203 c-16 -3 -23 -11 -22 -26 1 -14 3 -16 6 -6 2 9 21 20 41
26 36 10 19 14 -25 6z"/>
<path d="M4276 2184 c-10 -25 2 -34 45 -34 36 0 40 2 37 23 -2 18 -10 22 -40
24 -25 1 -38 -3 -42 -13z m34 -9 c0 -8 -7 -15 -15 -15 -16 0 -20 12 -8 23 11
12 23 8 23 -8z m40 0 c0 -8 -7 -15 -15 -15 -16 0 -20 12 -8 23 11 12 23 8 23
-8z"/>
<path d="M1003 2113 c4 -3 23 -6 43 -5 31 1 34 -1 24 -13 -7 -8 -15 -13 -19
-11 -4 3 -12 -4 -19 -15 -7 -10 -11 -19 -8 -19 11 0 74 58 69 64 -3 3 -27 6
-51 6 -25 0 -42 -3 -39 -7z"/>
<path d="M4274 2101 c3 -5 22 -11 41 -13 19 -2 32 -1 27 3 -11 10 -74 20 -68
10z"/>
<path d="M4245 2044 c-8 -9 -15 -20 -15 -25 0 -11 44 -29 68 -28 9 1 0 6 -20
11 -21 6 -38 14 -38 19 0 16 32 23 40 9 7 -11 13 -11 32 -2 23 12 23 12 1 6
-13 -3 -23 -1 -23 4 0 18 -29 21 -45 6z"/>
<path d="M1097 2023 c-4 -3 -7 -15 -7 -25 0 -10 -7 -18 -16 -18 -10 0 -14 6
-10 15 3 8 1 15 -5 15 -6 0 -9 -8 -7 -17 5 -27 42 -23 46 5 2 12 10 22 19 22
10 0 13 -6 8 -17 -5 -14 -3 -15 6 -6 6 6 8 16 5 22 -8 12 -29 15 -39 4z"/>
<path d="M4200 1954 c0 -4 14 -22 31 -42 20 -22 29 -28 25 -16 -6 22 2 38 24
47 8 3 -1 6 -20 6 -25 1 -31 -2 -20 -9 8 -5 11 -12 8 -15 -10 -10 -28 4 -28
21 0 8 -4 14 -10 14 -5 0 -10 -3 -10 -6z"/>
<path d="M1162 1897 c-32 -34 -27 -45 6 -14 28 27 42 27 42 0 0 -7 -8 -13 -19
-13 -11 0 -21 -9 -24 -22 -5 -20 -4 -21 6 -7 7 8 20 18 30 22 20 7 22 28 5 45
-17 17 -21 15 -46 -11z"/>
<path d="M4152 1884 c-12 -8 -22 -23 -22 -33 0 -27 35 -54 59 -46 20 6 38 41
27 52 -3 4 -6 -1 -6 -9 0 -26 -26 -41 -49 -28 -27 14 -27 50 -1 57 11 3 20 9
20 14 0 12 -2 12 -28 -7z"/>
<path d="M1240 1823 c-17 -29 -18 -38 -8 -44 22 -15 33 -10 12 5 -17 13 -18
15 -2 21 9 4 22 4 28 0 7 -4 7 1 -1 13 -17 27 -5 39 18 21 16 -13 17 -12 4 4
-19 24 -26 22 -51 -20z"/>
<path d="M1330 1806 c-28 -35 11 -93 48 -70 19 13 20 27 0 32 -9 2 -8 0 2 -7
12 -9 12 -11 -3 -17 -29 -11 -49 3 -45 33 2 22 9 29 31 31 15 2 27 -1 27 -7 0
-6 5 -11 11 -11 8 0 8 5 -1 15 -16 19 -54 19 -70 1z"/>
<path d="M4023 1794 c9 -11 14 -24 10 -27 -11 -12 -21 -8 -26 11 -3 9 -5 -1
-5 -23 0 -22 2 -33 5 -23 6 23 32 31 51 16 13 -11 14 -10 5 7 -6 11 -22 29
-35 40 l-23 20 18 -21z"/>
<path d="M3928 1778 c4 -16 7 -18 10 -8 3 8 10 18 16 22 6 5 2 8 -11 8 -17 0
-20 -4 -15 -22z"/>
<path d="M1452 1765 c0 -16 2 -22 5 -12 2 9 2 23 0 30 -3 6 -5 -1 -5 -18z"/>
<path d="M1510 1770 c-6 -11 -7 -20 -1 -20 5 0 11 7 15 15 7 19 40 19 55 1 9
-11 10 -20 1 -35 -13 -26 -45 -27 -59 -3 -6 9 -11 12 -11 7 0 -6 5 -16 12 -23
33 -33 91 16 68 57 -14 28 -65 28 -80 1z"/>
<path d="M3834 1778 c-4 -6 2 -19 14 -29 29 -23 29 -42 0 -34 -18 6 -20 5 -11
-5 6 -7 19 -10 27 -7 23 9 20 44 -4 50 -11 3 -20 11 -20 17 0 7 8 10 20 7 11
-3 18 -1 14 4 -7 13 -31 11 -40 -3z"/>
<path d="M1642 1738 c1 -39 2 -40 5 -10 4 32 5 33 19 15 13 -16 13 -15 3 10
-18 40 -29 33 -27 -15z"/>
<path d="M1702 1755 c0 -16 2 -22 5 -12 2 9 2 23 0 30 -3 6 -5 -1 -5 -18z"/>
<path d="M1761 1738 c1 -25 4 -33 6 -20 3 17 9 22 21 18 15 -5 15 -4 0 8 -24
18 -23 24 5 29 19 4 18 4 -5 6 -27 1 -28 -1 -27 -41z"/>
<path d="M1863 1764 c-4 -10 1 -22 10 -29 25 -18 22 -38 -4 -30 -15 5 -19 4
-15 -4 4 -6 16 -11 27 -11 23 0 26 32 4 50 -8 7 -15 17 -15 22 0 6 7 8 15 4 8
-3 15 -1 15 4 0 17 -30 11 -37 -6z"/>
<path d="M3578 1754 c-8 -18 -9 -30 -1 -42 12 -20 51 -28 65 -14 6 6 1 8 -14
5 -32 -6 -56 22 -41 45 6 10 22 17 36 17 14 -1 23 3 21 7 -12 19 -55 7 -66
-18z"/>
<path d="M3710 1765 c-7 -8 -10 -25 -6 -39 11 -45 71 -45 82 0 8 30 -11 54
-41 54 -12 0 -28 -7 -35 -15z m67 -11 c8 -22 -10 -49 -32 -49 -10 0 -22 7 -28
16 -15 24 -1 49 28 49 15 0 28 -7 32 -16z"/>
<path d="M2036 1733 c-13 -21 -21 -40 -18 -43 2 -3 7 1 9 8 7 18 34 15 48 -5
12 -16 13 -15 8 9 -4 19 -9 24 -24 21 -15 -4 -18 -1 -13 11 3 9 10 13 15 10 5
-3 9 2 9 10 0 24 -8 19 -34 -21z"/>
<path d="M3400 1729 c-6 -22 -9 -44 -6 -47 3 -3 6 2 6 11 0 20 30 23 48 5 17
-17 14 3 -3 26 -8 11 -15 14 -15 8 0 -7 -4 -12 -10 -12 -14 0 -12 28 2 32 9 3
9 6 0 11 -7 5 -15 -7 -22 -34z"/>
<path d="M2136 1715 c-8 -41 -2 -55 24 -55 17 0 41 46 39 74 0 6 -6 -5 -13
-24 -7 -19 -21 -37 -30 -38 -16 -3 -17 1 -11 37 8 50 0 55 -9 6z"/>
<path d="M3301 1735 c-1 -36 11 -65 28 -65 13 0 13 2 3 9 -8 5 -18 24 -22 42
-4 19 -8 25 -9 14z"/>
<path d="M3942 1730 c0 -14 2 -19 5 -12 2 6 2 18 0 25 -3 6 -5 1 -5 -13z"/>
<path d="M3131 1721 c-22 -14 4 -81 32 -80 21 0 20 1 -3 10 -25 10 -25 11 -5
26 16 12 16 14 3 10 -25 -9 -34 14 -13 30 20 14 8 18 -14 4z"/>
<path d="M1686 1705 c4 -8 8 -15 10 -15 2 0 4 7 4 15 0 8 -4 15 -10 15 -5 0
-7 -7 -4 -15z"/>
<path d="M2265 1709 c3 -4 -1 -22 -10 -40 -9 -17 -14 -33 -11 -36 3 -3 10 7
16 23 6 16 18 34 26 40 12 10 12 12 -6 17 -11 3 -18 1 -15 -4z"/>
<path d="M3023 1679 c-27 -10 -27 -9 -6 -54 19 -40 23 -41 53 -17 40 33 2 90
-47 71z m57 -45 c0 -7 -9 -18 -20 -24 -16 -9 -22 -6 -35 19 -14 28 -14 31 2
40 20 11 53 -11 53 -35z"/>
<path d="M2326 1648 c-13 -19 -14 -25 -2 -43 20 -30 52 -31 71 -1 34 51 -34
95 -69 44z m63 -2 c15 -18 -2 -56 -24 -56 -26 0 -46 29 -35 51 13 22 43 25 59
5z"/>
<path d="M2445 1596 c-9 -21 -14 -40 -11 -43 3 -3 8 6 12 21 9 36 22 33 26 -6
3 -32 18 -42 27 -17 2 7 -1 9 -8 5 -7 -5 -11 1 -12 16 0 13 -4 32 -9 43 -7 18
-10 16 -25 -19z"/>
<path d="M2897 1623 c-14 -14 -6 -32 16 -35 12 -2 22 -10 22 -18 0 -8 -7 -14
-15 -12 -11 3 -12 1 -3 -8 15 -16 33 -4 33 20 0 13 -9 22 -25 26 -29 7 -33 21
-7 27 14 4 14 5 1 6 -9 0 -19 -2 -22 -6z"/>
<path d="M2506 1595 c-9 -26 -7 -32 5 -12 6 10 9 21 6 23 -2 3 -7 -2 -11 -11z"/>
<path d="M2807 1593 c-4 -3 -7 -24 -7 -47 0 -37 1 -38 14 -20 13 16 18 17 35
6 12 -7 21 -9 21 -5 -1 15 -57 73 -63 66z m22 -27 c9 -10 8 -15 -4 -20 -10 -4
-15 1 -15 14 0 24 4 25 19 6z"/>
<path d="M2557 1572 c-30 -33 -15 -72 28 -72 44 0 63 60 26 80 -27 14 -35 13
-54 -8z m56 -13 c15 -24 1 -49 -27 -49 -29 0 -44 33 -25 56 15 18 38 15 52 -7z"/>
<path d="M2668 1545 c-3 -4 6 -24 20 -46 26 -39 41 -38 42 4 0 9 5 17 10 17 6
0 10 7 10 16 0 25 -19 6 -28 -29 l-9 -32 -19 38 c-11 21 -23 35 -26 32z"/>
<path d="M2672 1480 c0 -14 2 -19 5 -12 2 6 2 18 0 25 -3 6 -5 1 -5 -13z"/>
<path d="M2751 1484 c0 -11 3 -14 6 -6 3 7 2 16 -1 19 -3 4 -6 -2 -5 -13z"/>
<path d="M3085 5211 c-3 -5 -2 -12 3 -15 5 -3 9 1 9 9 0 17 -3 19 -12 6z"/>
<path d="M3059 5198 c0 -2 -2 -11 -4 -21 -3 -15 -1 -16 11 -6 7 6 11 15 8 20
-5 9 -13 12 -15 7z"/>
<path d="M7735 4418 c-42 -15 -72 -45 -86 -85 -9 -28 -8 -39 8 -69 17 -34 45
-54 125 -89 47 -21 59 -52 28 -77 -25 -21 -58 -23 -113 -7 -22 6 -40 9 -42 7
-1 -2 -6 -17 -9 -34 -7 -29 -4 -33 25 -43 90 -31 209 3 236 67 29 69 -9 132
-97 166 -58 23 -70 33 -70 62 0 40 46 51 121 28 12 -3 20 5 28 27 13 38 13 38
-36 50 -48 11 -80 10 -118 -3z"/>
<path d="M11175 4411 c-56 -26 -80 -55 -80 -100 0 -49 28 -89 73 -108 94 -39
102 -44 102 -74 0 -43 -35 -56 -108 -41 -30 6 -57 11 -58 9 -1 -1 -5 -16 -8
-33 -7 -29 -4 -33 25 -43 114 -40 242 20 242 113 0 51 -27 83 -100 119 -83 40
-98 60 -63 89 24 19 66 20 113 2 10 -3 18 5 26 27 13 38 13 38 -36 50 -56 13
-83 11 -128 -10z"/>
<path d="M5572 4273 c4 -169 18 -212 79 -245 45 -25 147 -21 185 8 55 40 64
75 64 237 l0 148 -41 -3 -42 -3 1 -115 c1 -183 -23 -236 -101 -216 -46 11 -57
50 -57 201 l0 135 -46 0 -46 0 4 -147z"/>
<path d="M5990 4216 l0 -204 33 3 c17 2 36 4 40 4 5 1 7 66 5 146 -2 80 0 145
4 145 3 0 11 -13 16 -29 6 -16 40 -82 76 -147 l65 -119 46 0 45 -1 0 203 0
203 -41 0 -42 0 5 -140 c3 -77 4 -140 2 -140 -2 0 -12 21 -24 48 -12 26 -44
89 -73 139 l-52 93 -52 0 -53 0 0 -204z"/>
<path d="M6410 4221 c0 -214 -1 -209 55 -207 l30 1 3 203 2 202 -45 0 -45 0 0
-199z"/>
<path d="M6552 4408 c3 -7 31 -96 64 -198 32 -102 62 -188 67 -191 4 -3 28 -5
54 -5 l46 1 63 185 c34 102 65 193 69 203 6 15 1 17 -41 17 l-49 0 -37 -128
c-20 -70 -40 -139 -44 -154 -6 -29 -24 -29 -24 0 0 9 -16 77 -37 150 l-37 132
-49 0 c-35 0 -48 -4 -45 -12z"/>
<path d="M6972 4218 l3 -203 125 2 125 1 0 33 0 34 -82 3 -83 3 0 49 0 50 75
0 75 0 0 35 0 35 -75 0 -75 0 0 45 0 45 80 0 80 0 0 35 0 35 -125 0 -125 0 2
-202z"/>
<path d="M7294 4407 c-3 -8 -4 -99 -2 -202 l3 -189 42 -2 42 -1 3 81 c3 73 5
81 24 84 35 5 63 -29 82 -98 l17 -65 40 -1 c22 -1 43 0 46 2 9 5 -27 132 -46
160 -8 13 -20 24 -26 24 -6 0 6 15 25 34 31 29 36 40 36 78 0 46 -17 71 -67
97 -32 16 -212 15 -219 -2z m181 -61 c11 -8 18 -26 18 -46 0 -41 -24 -60 -75
-60 l-38 0 0 53 c0 30 3 57 7 60 11 12 68 8 88 -7z"/>
<path d="M7982 4233 c0 -104 1 -195 4 -204 3 -13 15 -16 42 -14 l37 2 3 202 2
201 -44 0 -43 0 -1 -187z"/>
<path d="M8160 4221 c0 -227 -7 -211 94 -211 144 0 234 57 256 163 21 104 -13
185 -93 223 -44 20 -67 24 -154 24 l-103 0 0 -199z m190 123 c49 -20 70 -55
70 -117 0 -68 -16 -101 -60 -126 -38 -21 -111 -27 -110 -8 0 4 0 66 0 137 l0
130 30 0 c16 0 48 -7 70 -16z"/>
<path d="M8607 4227 c-31 -105 -57 -197 -57 -203 0 -10 34 -11 82 -5 3 1 11
24 18 51 l12 50 63 0 63 0 12 -50 c7 -27 15 -50 18 -51 30 -5 92 -5 92 0 0 3
-13 47 -29 96 -16 50 -43 138 -61 198 l-33 107 -61 0 -61 0 -58 -193z m158
-17 c5 -24 3 -25 -40 -26 -25 0 -45 3 -45 8 0 9 29 123 37 148 5 13 34 -65 48
-130z"/>
<path d="M8975 4408 c-3 -7 -4 -99 -3 -203 l3 -190 65 -3 c105 -5 176 14 226
62 93 90 84 246 -17 313 -39 26 -51 28 -156 32 -89 2 -114 0 -118 -11z m190
-62 c47 -20 69 -58 69 -120 0 -93 -49 -146 -134 -146 l-40 0 0 133 c0 74 3
137 7 140 11 12 62 8 98 -7z"/>
<path d="M9522 4218 l3 -203 73 -3 c153 -6 249 50 271 159 24 113 -23 209
-116 237 -22 7 -84 12 -137 12 l-96 0 2 -202z m188 126 c49 -20 70 -55 70
-117 0 -67 -16 -101 -59 -125 -51 -29 -111 -30 -111 -2 -1 11 -1 72 -1 135 0
63 0 117 1 120 0 11 62 4 100 -11z"/>
<path d="M9940 4220 c0 -153 3 -200 13 -201 11 -1 221 0 240 1 4 0 7 16 7 35
l0 35 -85 0 -85 0 0 50 0 50 75 0 75 0 0 35 0 35 -75 0 -75 0 0 45 0 45 80 0
80 0 0 35 0 35 -125 0 -125 0 0 -200z"/>
<path d="M10392 4218 l3 -202 123 -1 122 -1 0 38 0 38 -80 0 -80 0 0 165 0
165 -45 0 -45 0 2 -202z"/>
<path d="M10795 4408 c-16 -49 -115 -381 -115 -388 0 -10 63 -11 79 -1 6 4 17
27 24 52 l13 44 62 3 61 3 12 -46 c13 -53 19 -57 71 -60 47 -3 48 -19 -18 195
-25 80 -50 160 -55 178 -10 31 -12 32 -70 32 -39 0 -61 -4 -64 -12z m85 -136
c11 -40 20 -75 20 -79 0 -5 -21 -7 -46 -5 -36 3 -44 7 -39 20 3 8 13 44 22 79
8 35 17 62 20 60 2 -2 12 -36 23 -75z"/>
<path d="M9752 3775 l-22 -35 34 0 c24 0 43 9 65 29 17 16 31 32 31 35 0 3
-19 6 -42 6 -38 0 -46 -4 -66 -35z"/>
<path d="M6962 3709 c-47 -14 -109 -79 -123 -131 -28 -105 11 -217 91 -258
111 -57 246 1 280 121 49 170 -85 315 -248 268z m124 -93 c35 -35 41 -58 35
-135 -3 -43 -25 -87 -50 -101 -11 -5 -35 -10 -54 -10 -84 0 -123 130 -70 233
28 55 91 61 139 13z"/>
<path d="M8128 3711 c-72 -15 -108 -55 -108 -120 0 -42 35 -79 109 -114 47
-23 67 -38 69 -53 7 -47 -55 -68 -128 -43 -37 13 -52 1 -48 -41 3 -28 28 -38
106 -39 95 -2 162 46 162 116 0 60 -23 88 -105 127 -54 26 -75 41 -75 55 0 32
25 44 89 39 62 -4 70 2 71 49 0 21 -85 35 -142 24z"/>
<path d="M9703 3707 c-82 -31 -127 -101 -127 -202 -1 -137 78 -213 209 -203
111 9 165 69 173 192 4 59 1 79 -16 112 -48 94 -146 135 -239 101z m102 -67
c77 -29 84 -225 8 -259 -83 -38 -143 15 -143 124 0 61 18 105 52 129 26 19 46
20 83 6z"/>
<path d="M10562 3709 c-47 -14 -109 -79 -123 -131 -6 -24 -9 -69 -6 -101 10
-109 82 -177 188 -177 140 0 223 118 189 269 -25 113 -132 173 -248 140z m124
-93 c35 -35 41 -58 35 -135 -3 -43 -25 -87 -50 -101 -11 -5 -35 -10 -54 -10
-84 0 -123 130 -70 233 28 55 91 61 139 13z"/>
<path d="M11895 3711 c-73 -18 -105 -54 -105 -116 0 -51 30 -83 112 -119 64
-28 72 -38 64 -71 -8 -32 -45 -41 -110 -28 -56 12 -61 10 -70 -29 -5 -24 -2
-28 30 -38 53 -18 155 -8 192 19 57 40 67 124 19 169 -13 12 -51 35 -86 52
-56 27 -62 33 -59 57 4 33 40 45 95 33 42 -10 49 -7 58 31 5 18 2 28 -8 32
-29 11 -103 16 -132 8z"/>
<path d="M5574 3697 c-2 -7 -3 -98 -2 -202 l3 -190 43 -3 42 -3 0 87 0 87 32
-7 c45 -9 56 -22 73 -90 9 -32 18 -63 21 -67 9 -14 84 -11 84 4 0 30 -39 151
-54 165 -14 14 -12 19 14 49 51 57 37 133 -30 168 -38 20 -218 21 -226 2z
m163 -53 c27 -8 45 -53 30 -80 -15 -28 -27 -34 -69 -34 l-38 0 0 60 c0 59 1
60 28 60 15 0 37 -3 49 -6z"/>
<path d="M5933 3508 l2 -203 128 -3 127 -3 0 41 0 40 -85 0 -85 0 0 50 0 50
75 0 75 0 0 35 0 35 -75 0 -75 0 0 45 0 45 80 0 80 0 0 35 0 35 -124 0 -125 0
2 -202z"/>
<path d="M6350 3686 c-157 -80 -139 -329 27 -375 49 -14 109 -14 173 0 l50 11
0 103 c0 73 -4 104 -12 107 -7 3 -40 4 -73 3 -60 -1 -60 -1 -63 -33 -3 -30 -1
-32 27 -32 30 0 31 -1 31 -50 l0 -50 -44 0 c-85 0 -142 68 -130 155 11 86 61
120 165 113 l68 -5 7 30 c9 40 -5 47 -101 47 -64 -1 -89 -5 -125 -24z"/>
<path d="M6678 3688 c-2 -13 -2 -105 0 -205 l3 -183 39 0 40 0 0 205 0 205
-39 0 c-33 0 -40 -4 -43 -22z"/>
<path d="M7286 3702 c-3 -5 -4 -96 -3 -203 l2 -194 34 -3 c20 -2 37 2 42 10 5
7 6 75 4 151 -3 75 -3 137 -1 137 3 0 25 -39 49 -87 25 -49 60 -115 79 -148
33 -59 35 -60 81 -63 l47 -3 0 205 0 206 -41 0 -41 0 4 -140 c2 -77 1 -140 -2
-140 -4 0 -11 15 -18 33 -6 17 -39 80 -72 140 l-61 107 -49 0 c-27 0 -51 -4
-54 -8z"/>
<path d="M7710 3505 l0 -206 123 3 122 3 3 38 3 37 -85 0 -86 0 0 50 0 50 75
0 75 0 0 35 0 35 -75 0 -75 0 0 45 0 45 80 0 80 0 0 35 0 35 -120 0 -120 0 0
-205z"/>
<path d="M8577 3703 c-9 -14 -117 -376 -117 -390 0 -10 11 -13 42 -11 43 3 43
3 57 56 l14 52 61 0 61 0 15 -52 15 -53 49 -3 c37 -2 47 0 44 10 -3 7 -31 100
-63 206 l-59 192 -57 0 c-32 0 -60 -3 -62 -7z m82 -148 c11 -38 17 -73 15 -77
-8 -12 -84 -10 -84 2 0 10 28 121 37 150 6 18 7 15 32 -75z"/>
<path d="M8862 3558 c3 -123 7 -159 21 -186 26 -48 71 -72 137 -72 73 0 118
25 147 80 21 39 23 57 23 187 l0 143 -45 0 -45 0 0 -141 c0 -172 -10 -199 -75
-199 -65 0 -75 27 -75 199 l0 141 -46 0 -46 0 4 -152z"/>
<path d="M9240 3676 l0 -35 58 -3 57 -3 2 -160 c2 -88 3 -163 3 -167 0 -5 18
-8 40 -8 l40 0 2 168 3 167 57 3 58 3 -4 32 -3 32 -157 3 -156 3 0 -35z"/>
<path d="M10030 3505 l0 -204 38 2 37 2 0 148 c0 81 3 147 8 147 4 0 7 -6 7
-12 0 -17 140 -271 154 -280 6 -4 28 -8 49 -8 l37 0 0 205 0 205 -41 0 -42 0
5 -140 c2 -77 3 -138 1 -136 -2 2 -23 41 -47 87 -24 46 -57 108 -72 136 l-29
53 -52 0 -53 0 0 -205z"/>
<path d="M10897 3633 c-4 -43 -9 -136 -13 -206 l-7 -128 39 3 39 3 10 160 10
160 23 -95 c12 -52 31 -122 41 -155 18 -57 20 -60 53 -63 l34 -3 43 143 c24
79 46 150 49 158 4 8 9 -48 13 -125 4 -77 7 -150 8 -162 1 -20 7 -23 42 -23
l41 0 -6 158 c-4 86 -9 178 -12 205 l-6 47 -57 0 -58 0 -32 -102 c-17 -57 -34
-120 -38 -140 -6 -41 -23 -52 -24 -15 0 12 -15 74 -33 137 l-32 115 -61 3 -60
3 -6 -78z"/>
<path d="M11436 3523 c-31 -103 -59 -196 -62 -205 -5 -15 1 -18 40 -18 l45 0
16 55 16 55 59 0 59 0 17 -55 18 -55 43 0 c34 0 43 3 43 18 0 9 -27 100 -59
202 l-59 185 -59 3 -60 3 -57 -188z m124 89 c0 -9 9 -42 19 -72 10 -30 17 -58
14 -62 -5 -9 -77 -11 -85 -3 -7 8 36 164 44 159 4 -3 8 -13 8 -22z"/>
<path d="M1136 3672 c-3 -5 1 -9 9 -9 8 0 12 4 9 9 -3 4 -7 8 -9 8 -2 0 -6 -4
-9 -8z"/>
<path d="M773 3375 c0 -8 4 -12 9 -9 5 3 6 10 3 15 -9 13 -12 11 -12 -6z"/>
<path d="M391 3065 c-3 -68 60 -235 118 -315 32 -44 33 -47 26 -118 l-7 -74
29 4 c30 3 31 4 9 63 -8 22 -15 66 -16 98 0 68 -17 112 -63 170 -40 48 -64 93
-82 151 -7 23 -13 32 -14 21z"/>
<path d="M345 3010 c-27 -80 -34 -158 -23 -248 l10 -82 -42 -47 c-58 -67 -46
-107 27 -88 23 5 25 9 19 53 -4 36 0 62 16 102 16 43 20 72 18 135 -2 44 -3
113 -3 153 1 39 0 72 -2 72 -2 0 -11 -23 -20 -50z"/>
<path d="M7432 3000 c-61 -13 -108 -45 -136 -93 -69 -121 -22 -267 99 -307 34
-11 168 -11 178 0 3 3 2 19 0 36 l-5 32 -57 -5 c-102 -10 -151 36 -151 141 0
49 4 59 35 91 34 37 35 37 104 33 l69 -4 6 30 c7 32 -5 45 -39 46 -11 0 -29 2
-40 4 -11 2 -39 0 -63 -4z"/>
<path d="M7741 2995 c-84 -26 -131 -97 -131 -200 0 -145 101 -228 245 -201 88
17 156 130 140 234 -13 88 -53 143 -122 168 -47 16 -76 16 -132 -1z m93 -65
c39 -15 66 -66 66 -128 0 -95 -33 -142 -100 -142 -46 0 -66 14 -84 60 -21 53
-20 105 4 158 25 55 62 72 114 52z"/>
<path d="M8154 2999 c-53 -12 -94 -55 -101 -106 -7 -52 22 -86 108 -127 57
-28 64 -34 64 -61 0 -40 -36 -53 -108 -38 -28 6 -53 10 -54 9 -2 -1 -6 -17 -9
-34 -6 -28 -3 -33 20 -42 15 -5 54 -10 88 -10 106 0 158 43 158 130 0 52 -27
81 -109 116 -63 28 -82 53 -60 81 10 11 28 14 76 11 l63 -4 9 31 c6 23 4 31
-8 36 -33 13 -98 16 -137 8z"/>
<path d="M9352 3000 c-59 -12 -118 -57 -143 -108 -17 -35 -20 -57 -17 -116 3
-62 8 -79 32 -111 42 -55 101 -78 192 -73 40 2 75 6 78 9 4 3 3 20 0 37 -6 30
-7 30 -58 25 -98 -10 -156 41 -156 137 0 50 20 91 56 115 20 13 41 16 90 13
63 -4 63 -4 70 25 7 32 -6 46 -41 47 -11 0 -29 2 -40 4 -11 2 -39 0 -63 -4z"/>
<path d="M5574 2987 c-2 -7 -3 -98 -2 -202 l3 -190 78 -3 c184 -7 278 68 277
219 -1 86 -47 150 -129 177 -48 17 -220 16 -227 -1z m214 -74 c49 -31 65 -131
31 -194 -17 -32 -70 -59 -116 -59 l-43 0 0 134 c0 98 3 136 13 140 19 8 90 -4
115 -21z"/>
<path d="M6000 2795 l0 -205 124 0 124 0 4 35 4 34 -85 3 -84 3 -1 50 0 50 77
3 77 3 0 34 0 35 -77 0 -78 0 1 42 1 43 79 5 79 5 0 30 0 30 -122 3 -123 3 0
-206z"/>
<path d="M6449 2985 c-1 -8 -1 -22 -1 -30 0 -8 0 -94 1 -190 l1 -176 123 3
122 3 0 35 0 35 -82 3 -83 3 0 164 0 165 -40 0 c-28 0 -40 -4 -41 -15z"/>
<path d="M6798 2813 c-31 -104 -60 -196 -63 -205 -6 -16 -1 -18 39 -18 28 0
48 5 51 13 2 6 9 31 15 55 l11 43 61 -3 61 -3 16 -50 16 -50 49 -3 c36 -2 47
0 43 10 -2 7 -31 100 -63 205 l-59 193 -61 0 -60 0 -56 -187z m138 31 c24 -84
22 -88 -38 -82 -23 2 -32 7 -29 18 2 8 11 43 19 78 9 34 18 62 21 62 4 0 16
-34 27 -76z"/>
<path d="M8360 2965 l0 -35 55 0 55 0 0 -170 0 -170 45 0 45 0 0 170 0 170 55
0 55 0 0 35 0 35 -155 0 -155 0 0 -35z"/>
<path d="M8717 2807 c-31 -105 -57 -198 -57 -205 0 -9 12 -12 42 -10 41 3 42
4 56 56 l15 53 60 -3 60 -3 16 -50 16 -50 48 -3 c26 -2 47 0 47 3 0 4 -25 86
-56 183 -31 98 -59 187 -61 200 -5 20 -11 22 -67 22 l-61 0 -58 -193z m163
-44 c0 -2 -20 -3 -45 -3 -25 0 -45 5 -45 10 0 10 27 119 37 150 4 11 51 -132
53 -157z"/>
<path d="M9607 2802 c-32 -108 -58 -201 -57 -205 0 -5 19 -7 42 -5 43 3 43 3
57 56 l14 53 60 -3 60 -3 17 -50 c17 -50 17 -50 65 -53 42 -3 47 -1 43 15 -3
10 -32 102 -64 206 l-58 187 -60 0 -61 0 -58 -198z m163 -34 c0 -5 -20 -8 -45
-8 -25 0 -45 5 -45 10 0 10 27 119 37 150 4 12 52 -126 53 -152z"/>
<path d="M9977 2993 c-4 -3 -7 -96 -7 -205 l0 -198 45 0 45 0 0 80 0 80 34 0
c43 0 51 -10 72 -93 l16 -67 44 0 c31 0 44 4 44 14 0 32 -41 144 -59 160 -18
16 -17 18 15 50 56 56 44 135 -26 171 -30 15 -210 22 -223 8z m178 -73 c8 -7
15 -27 15 -46 0 -39 -21 -54 -74 -54 l-36 0 0 61 0 62 40 -6 c23 -3 47 -11 55
-17z"/>
<path d="M10332 2798 l3 -203 43 -3 42 -3 0 205 0 206 -45 0 -45 0 2 -202z"/>
<path d="M10510 2796 l0 -206 81 0 c132 0 199 32 213 101 8 41 -19 97 -50 105
-31 8 -30 10 6 41 42 35 42 88 -1 128 -29 29 -34 30 -140 33 l-109 4 0 -206z
m171 134 c12 -7 19 -21 19 -40 0 -35 -23 -50 -74 -50 -36 0 -36 0 -36 43 0 24
3 47 7 50 10 11 62 8 84 -3z m10 -171 c13 -7 19 -21 19 -45 0 -31 -4 -37 -36
-50 -20 -8 -46 -14 -58 -12 -18 3 -21 11 -24 52 -2 27 -1 54 2 61 5 14 67 10
97 -6z"/>
<path d="M10876 2803 c1 -109 3 -201 3 -205 1 -5 57 -8 126 -8 l125 0 0 35 0
34 -82 3 -83 3 0 50 0 50 73 3 72 3 0 34 0 35 -75 0 -75 0 0 45 0 45 80 0 80
0 0 35 0 35 -123 0 -123 0 2 -197z"/>
<path d="M8310 2382 c-19 -16 -21 -22 -11 -40 14 -26 56 -30 65 -6 10 27 7 43
-13 54 -15 7 -24 5 -41 -8z"/>
<path d="M8174 2376 c-10 -27 1 -51 26 -54 31 -5 53 23 39 49 -12 22 -57 25
-65 5z"/>
<path d="M5572 2088 l3 -203 37 -3 37 -3 3 151 3 152 53 -104 c29 -56 66 -124
82 -150 29 -46 32 -48 75 -48 l45 0 0 205 0 205 -40 0 -40 0 -1 -142 c-1 -136
-1 -141 -15 -108 -9 19 -43 83 -77 143 l-61 107 -53 0 -53 0 2 -202z"/>
<path d="M5990 2085 l0 -205 45 0 45 0 0 205 0 205 -45 0 -45 0 0 -205z"/>
<path d="M6265 2271 c-75 -35 -115 -102 -115 -193 1 -129 76 -198 217 -198 83
0 97 8 89 47 -7 29 -8 29 -60 25 -100 -8 -160 49 -153 147 3 48 9 59 42 89 36
33 40 34 101 30 63 -4 64 -4 74 26 14 40 2 46 -85 46 -47 0 -83 -7 -110 -19z"/>
<path d="M6596 2178 c-56 -181 -86 -284 -86 -291 0 -4 20 -7 44 -7 l43 0 14
53 14 52 61 3 60 3 18 -56 17 -55 45 0 c24 0 44 4 44 10 0 5 -27 96 -60 201
-33 105 -60 193 -60 195 0 2 -27 4 -60 4 l-59 0 -35 -112z m118 -49 c23 -78
22 -79 -30 -79 -43 0 -46 2 -40 23 3 12 14 51 23 86 18 71 18 71 47 -30z"/>
<path d="M6934 2277 c-2 -7 -3 -98 -2 -202 l3 -190 43 -3 42 -3 0 80 0 81 34
0 c42 0 53 -13 74 -92 l17 -63 49 -3 c39 -3 48 0 43 11 -3 8 -15 46 -27 85
-11 39 -28 76 -37 81 -15 8 -13 13 15 41 27 27 32 39 32 79 0 52 -21 80 -73
100 -41 16 -206 14 -213 -2z m170 -58 c32 -15 42 -54 21 -85 -12 -19 -24 -24
-60 -24 l-45 0 0 53 c0 30 3 57 7 60 10 11 49 8 77 -4z"/>
<path d="M7396 2282 c-5 -8 -111 -351 -118 -382 -2 -12 7 -15 42 -15 l45 0 14
53 14 53 61 -3 61 -3 15 -52 15 -53 48 0 c46 0 48 1 41 23 -36 113 -85 274
-99 325 l-18 62 -58 0 c-32 0 -60 -4 -63 -8z m104 -224 c0 -5 -20 -8 -45 -8
-28 0 -45 4 -45 12 0 11 25 113 37 148 4 12 51 -125 53 -152z"/>
<path d="M7805 2279 c-86 -32 -135 -104 -135 -199 0 -122 66 -190 193 -198 40
-2 91 1 115 7 l42 12 0 104 0 105 -76 0 -75 0 3 -27 c2 -22 9 -29 33 -33 28
-5 30 -8 33 -52 l3 -48 -41 0 c-87 0 -140 52 -140 137 0 50 18 82 60 111 30
20 45 23 104 20 68 -3 69 -3 79 25 5 16 6 31 3 34 -12 12 -171 13 -201 2z"/>
<path d="M8101 2132 c4 -175 11 -195 72 -232 45 -28 140 -27 185 0 58 35 72
84 72 248 l0 142 -44 0 -45 0 -3 -156 c-3 -140 -5 -157 -22 -170 -21 -15 -74
-19 -92 -6 -27 18 -34 56 -34 191 l0 141 -46 0 -46 0 3 -158z"/>
<path d="M8520 2085 l0 -205 125 0 125 0 0 35 0 34 -82 3 -83 3 0 50 0 50 78
3 78 3 -3 32 -3 32 -78 3 -78 3 3 42 3 42 80 5 c63 4 80 8 79 20 -1 8 -2 23
-3 33 -1 15 -14 17 -121 17 l-120 0 0 -205z"/>
<path d="M8840 2085 l0 -205 40 0 40 0 0 153 c0 83 4 145 9 137 4 -8 41 -77
81 -152 l73 -138 48 0 49 0 0 205 0 205 -40 0 -40 0 0 -142 c-1 -136 -2 -142
-16 -113 -9 17 -43 81 -76 143 l-61 112 -53 0 -54 0 0 -205z"/>
<path d="M9309 2267 c-60 -41 -76 -103 -38 -152 12 -15 52 -41 88 -59 49 -23
67 -37 69 -54 6 -41 -16 -55 -78 -49 -30 2 -62 7 -72 11 -12 6 -18 0 -23 -24
-10 -44 4 -53 80 -58 118 -8 185 37 185 122 0 47 -47 99 -115 124 -57 22 -75
44 -59 70 9 13 25 17 77 16 65 -1 66 0 73 29 8 39 -6 47 -87 47 -52 0 -73 -5
-100 -23z"/>
<path d="M9590 2085 l0 -205 130 0 130 0 0 35 0 35 -85 0 -85 0 0 55 0 55 75
0 75 0 0 35 0 35 -75 0 -75 0 0 45 0 45 80 0 80 0 0 35 0 35 -125 0 -125 0 0
-205z"/>
<path d="M303 2124 l-17 -56 26 -51 c23 -45 48 -110 48 -125 0 -2 -16 10 -36
28 -21 18 -43 29 -51 26 -8 -3 -30 -6 -49 -6 -45 0 -43 -11 7 -45 35 -23 50
-27 90 -23 45 5 49 3 58 -21 5 -14 12 -34 16 -44 7 -17 5 -17 -26 2 -19 12
-42 21 -53 21 -27 0 -96 -22 -96 -30 0 -4 23 -17 51 -30 47 -20 56 -21 97 -9
34 9 47 10 50 1 2 -6 14 -27 27 -47 26 -38 23 -42 -15 -20 -14 8 -35 14 -47
15 -28 0 -103 -29 -103 -41 0 -4 24 -15 52 -24 48 -14 57 -14 100 2 47 17 48
17 73 -7 32 -31 32 -42 -2 -29 -21 8 -38 5 -80 -12 -29 -12 -53 -25 -53 -29 0
-4 25 -14 56 -23 50 -14 61 -15 100 -1 42 14 45 14 74 -8 37 -27 38 -32 4 -24
-17 5 -40 -1 -75 -20 -55 -30 -60 -39 -26 -48 46 -12 110 -6 147 15 l37 21 92
-36 c50 -20 95 -36 101 -36 5 0 10 -3 10 -7 0 -5 -18 -9 -40 -10 -50 -1 -81
-21 -109 -69 l-22 -36 48 7 c64 9 97 28 122 69 l21 34 58 -15 c31 -8 58 -16
60 -18 2 -2 -19 -2 -47 -2 -44 2 -54 -2 -86 -33 -20 -19 -41 -44 -47 -54 -10
-18 -7 -19 51 -13 75 8 97 19 136 64 l30 35 63 -13 c63 -13 66 -29 6 -29 -42
0 -79 -31 -104 -87 -11 -25 -19 -48 -17 -50 6 -6 97 25 122 41 14 9 34 35 46
59 12 23 23 43 24 45 1 2 32 -3 69 -9 67 -13 89 -29 37 -29 -58 0 -88 -19
-117 -75 -16 -30 -26 -56 -23 -59 7 -8 117 30 137 46 8 7 24 32 34 56 14 31
24 42 36 38 9 -3 38 -8 65 -12 59 -8 60 -20 2 -26 -25 -3 -52 -12 -62 -19 -20
-17 -57 -98 -49 -107 4 -3 31 2 60 12 58 18 101 57 112 103 5 19 11 23 28 19
11 -3 40 -8 64 -12 47 -7 49 -12 6 -20 -61 -10 -82 -25 -107 -77 -29 -62 -23
-66 56 -37 56 21 87 51 102 98 6 21 11 22 48 17 23 -4 58 -10 77 -14 l35 -8
-30 -7 c-89 -21 -89 -20 -118 -76 -35 -67 -26 -72 59 -38 50 20 61 29 82 71
14 26 31 47 39 47 21 0 245 -47 346 -72 91 -24 111 -38 53 -38 -19 0 -46 -4
-59 -9 -25 -10 -59 -57 -72 -98 -9 -31 20 -31 89 2 43 20 56 33 71 68 11 23
20 43 21 45 3 4 214 -58 294 -86 l55 -20 -30 -12 c-16 -6 -57 -22 -90 -35
-157 -59 -324 -164 -409 -256 -70 -76 -73 -102 -9 -107 39 -3 45 1 125 75 144
136 280 230 407 283 l72 29 65 -26 c122 -48 346 -206 459 -322 32 -34 46 -41
76 -41 177 0 -156 280 -453 381 -38 12 -68 26 -68 30 0 8 171 66 260 89 25 6
52 13 62 16 12 3 19 -5 27 -29 7 -19 22 -44 34 -55 24 -23 97 -52 128 -52 18
0 18 3 -5 48 -30 60 -44 72 -93 78 -69 10 -69 16 2 35 39 10 73 19 77 19 3 0
11 -15 18 -34 6 -18 21 -43 33 -54 24 -23 97 -52 128 -52 18 0 18 3 -5 48 -32
63 -47 74 -106 80 -28 2 -50 8 -50 11 0 7 251 61 281 61 9 0 20 -11 23 -24 11
-45 53 -82 111 -101 31 -9 59 -15 61 -12 11 11 -43 102 -67 114 -13 7 -42 15
-64 19 l-40 7 45 8 c119 22 106 24 130 -27 24 -48 66 -76 139 -90 l31 -6 -22
52 c-24 59 -44 75 -108 86 l-45 7 60 13 c33 7 63 13 67 14 3 0 11 -15 18 -34
6 -18 21 -42 33 -53 25 -23 98 -53 127 -53 20 0 19 2 -5 49 -30 61 -58 81
-108 81 -49 0 -40 15 15 24 24 4 52 9 64 12 17 4 22 0 27 -23 3 -16 18 -41 32
-56 27 -26 133 -73 143 -62 3 3 -5 28 -18 56 -27 56 -59 79 -115 79 -46 0 -45
16 3 23 20 3 52 9 69 12 29 7 34 5 43 -20 22 -58 49 -83 112 -104 34 -11 64
-18 67 -15 3 3 -7 29 -22 58 -30 57 -58 76 -112 76 -55 0 -41 16 26 29 59 12
61 12 80 -13 35 -45 73 -65 137 -72 34 -3 62 -2 62 2 0 16 -69 84 -95 94 -15
6 -37 7 -51 4 -14 -4 -24 -2 -24 5 0 6 11 11 24 11 14 0 36 4 50 10 24 9 29 6
52 -30 21 -32 37 -43 77 -55 28 -8 59 -15 69 -15 19 0 19 1 1 31 -32 53 -58
71 -107 73 -25 0 -46 4 -46 7 0 3 21 12 47 21 27 9 74 27 106 39 l58 22 38
-21 c39 -22 100 -27 151 -13 24 7 24 8 -19 36 -31 21 -55 29 -82 29 -22 -1
-39 -1 -39 0 0 1 14 12 30 24 29 22 32 22 74 8 40 -14 50 -14 98 0 29 9 57 19
61 24 5 4 -17 18 -49 30 -46 17 -63 19 -82 11 -35 -16 -35 -14 -5 23 22 29 30
33 46 24 45 -24 77 -26 132 -11 30 9 55 19 55 22 0 9 -90 41 -115 41 -11 0
-31 -7 -43 -16 -35 -24 -37 -11 -6 35 30 46 27 45 73 31 38 -11 91 0 126 26
17 13 18 16 5 24 -8 5 -34 12 -57 16 -33 5 -50 2 -78 -16 -39 -24 -42 -20 -16
29 17 32 21 34 72 35 40 1 63 7 87 24 17 13 32 28 32 33 0 5 -26 9 -57 9 -48
0 -61 -4 -84 -26 l-28 -27 14 48 c8 26 24 62 35 80 11 18 20 44 20 58 0 31
-29 107 -40 107 -9 0 -70 -92 -70 -106 0 -5 10 -27 21 -49 20 -36 20 -43 8
-95 l-12 -55 -8 34 c-4 20 -21 46 -41 62 l-33 29 -3 -47 c-3 -41 0 -51 22 -69
13 -12 31 -24 38 -26 10 -4 7 -16 -11 -54 l-24 -49 -8 33 c-4 19 -22 49 -40
68 -29 30 -34 32 -41 17 -3 -10 -7 -34 -7 -55 -1 -30 5 -41 36 -66 41 -32 41
-34 -17 -102 l-22 -25 6 27 c8 34 -4 65 -39 103 -27 28 -29 28 -36 10 -4 -11
-8 -37 -8 -57 -1 -30 5 -42 35 -66 l35 -29 -48 -42 c-52 -44 -70 -51 -58 -24
17 39 15 70 -7 107 -31 53 -42 54 -56 8 -18 -58 -15 -73 20 -109 l32 -33 -77
-35 c-93 -43 -109 -44 -71 -4 25 27 29 37 28 86 -2 76 -14 82 -57 32 -42 -47
-43 -55 -22 -106 8 -19 15 -39 15 -42 0 -7 -97 -41 -118 -41 -6 0 2 12 17 28
29 29 48 101 33 128 -7 12 -17 7 -56 -27 l-48 -42 7 -52 6 -52 -43 -7 c-24 -4
-54 -9 -68 -12 -24 -6 -23 -4 7 21 31 25 53 75 53 123 0 32 -20 27 -69 -15
-43 -36 -43 -36 -36 -88 l6 -52 -45 -6 c-25 -4 -58 -10 -73 -13 -26 -6 -25 -4
15 33 38 36 42 45 42 86 0 26 -3 47 -7 47 -4 0 -24 -12 -45 -26 -42 -29 -50
-48 -46 -108 l3 -40 -64 -13 c-35 -7 -66 -11 -69 -9 -2 2 8 12 23 22 36 23 55
64 55 119 l0 46 -27 -15 c-16 -8 -39 -26 -52 -40 -20 -22 -23 -32 -19 -81 4
-50 3 -56 -16 -60 -12 -2 -86 -16 -166 -31 -80 -14 -173 -32 -208 -40 -84 -19
-90 -18 -56 8 16 13 34 29 41 38 16 21 27 105 16 125 -8 13 -16 10 -56 -21
-53 -41 -64 -69 -48 -115 18 -51 15 -56 -50 -68 -65 -13 -84 -10 -49 9 34 18
60 70 60 122 0 26 -4 49 -8 52 -5 3 -32 -16 -60 -42 -41 -38 -51 -53 -47 -72
19 -96 24 -85 -49 -104 -88 -22 -89 -21 -46 22 39 39 57 100 42 142 -8 21 -8
20 -50 -10 -57 -41 -68 -66 -53 -126 7 -25 11 -48 9 -49 -6 -6 -122 -34 -126
-30 -2 2 14 19 35 38 36 34 38 38 37 97 -1 33 -4 64 -8 67 -8 9 -86 -66 -96
-92 -4 -11 -2 -39 6 -65 7 -24 10 -48 6 -51 -4 -4 -72 -25 -152 -48 l-145 -40
-228 62 c-210 57 -227 64 -222 82 4 11 9 38 12 61 5 39 3 42 -43 82 -27 23
-52 42 -56 42 -5 0 -8 -28 -8 -62 0 -58 2 -63 40 -100 46 -43 44 -44 -46 -22
-59 15 -65 19 -59 38 23 78 20 90 -36 140 -46 42 -54 45 -60 29 -3 -10 -5 -25
-3 -33 1 -8 3 -29 3 -47 1 -23 11 -42 39 -69 l37 -37 -35 7 c-19 4 -50 10 -68
13 -29 5 -33 9 -27 27 3 12 9 39 12 62 5 39 3 42 -43 82 -27 23 -52 42 -56 42
-5 0 -8 -28 -8 -62 0 -58 2 -63 40 -100 23 -21 35 -38 28 -38 -18 1 -129 28
-134 33 -3 2 0 16 6 31 21 56 13 87 -35 133 -25 24 -50 43 -55 43 -6 0 -10
-28 -10 -61 0 -58 2 -63 40 -102 22 -22 39 -41 38 -42 -2 -2 -73 10 -158 26
-85 16 -156 29 -156 29 -1 0 2 18 7 40 5 23 5 49 0 63 -9 24 -78 87 -95 87 -4
0 -6 -25 -4 -57 4 -49 9 -60 42 -91 21 -18 36 -35 34 -37 -2 -1 -67 9 -145 23
l-143 25 5 51 c6 56 1 66 -57 109 -33 25 -37 26 -40 10 -2 -10 -1 -38 3 -62 5
-34 14 -51 40 -72 38 -32 36 -33 -41 -15 l-55 13 3 41 c5 59 -3 75 -53 111
l-45 32 0 -53 c0 -47 4 -58 31 -86 17 -18 27 -32 22 -32 -10 0 -116 30 -121
34 -1 2 5 19 13 39 22 54 19 73 -22 118 -40 45 -46 42 -57 -27 -5 -36 -2 -47
25 -84 35 -48 34 -48 -78 0 l-63 26 26 25 c39 36 45 61 28 114 -9 25 -19 45
-22 45 -13 0 -54 -69 -55 -92 -1 -13 2 -36 6 -51 7 -25 6 -27 -10 -18 -10 5
-34 23 -53 40 l-35 30 38 36 c41 41 42 43 26 100 l-11 39 -34 -37 c-27 -29
-34 -45 -34 -78 l0 -42 -36 47 -36 48 36 30 c32 26 36 34 36 78 0 27 -4 51 -8
54 -15 9 -74 -61 -81 -96 l-7 -33 -22 42 c-28 54 -28 58 8 73 46 19 65 71 40
110 -8 13 -14 10 -41 -16 -17 -18 -32 -43 -32 -58 -3 -42 -13 -30 -26 30 -11
48 -11 58 3 73 31 34 30 72 -4 124 -18 26 -36 47 -40 47 -5 0 -17 -25 -27 -56z"/>
<path d="M1220 1475 c0 -56 10 -77 51 -106 37 -26 49 -16 49 43 0 30 -6 41
-37 65 -63 49 -63 49 -63 -2z"/>
<path d="M1530 1433 c0 -60 16 -91 60 -121 28 -18 35 -20 42 -9 10 19 13 68 5
93 -6 18 -85 84 -101 84 -3 0 -6 -21 -6 -47z"/>
<path d="M3850 1459 c-75 -61 -73 -58 -68 -110 3 -27 8 -52 12 -56 8 -8 54 25
78 58 10 13 21 48 25 77 7 59 -4 66 -47 31z"/>
<path d="M3656 1415 c-48 -44 -48 -44 -41 -92 11 -75 16 -78 63 -32 18 17 37
49 43 71 10 39 4 98 -10 98 -3 0 -28 -20 -55 -45z"/>
<path d="M675 1429 c-18 -9 -65 -70 -65 -84 0 -8 32 -6 74 6 37 10 96 60 96
80 0 12 -80 10 -105 -2z"/>
<path d="M4657 1409 c22 -38 58 -57 119 -66 l46 -6 -28 42 c-31 48 -56 61
-115 61 l-40 0 18 -31z"/>
<path d="M2326 1313 c-3 -3 -6 -33 -6 -66 0 -54 3 -62 35 -94 19 -19 39 -32
44 -29 5 4 15 22 21 42 9 27 9 41 0 62 -14 31 -84 95 -94 85z"/>
<path d="M1913 1171 c-52 -9 -68 -23 -100 -84 l-25 -50 38 8 c21 3 54 14 73
23 51 24 107 115 69 111 -7 -1 -32 -5 -55 -8z"/>
<path d="M3455 1144 c22 -53 30 -61 92 -84 81 -30 87 -25 55 38 -32 62 -39 67
-110 76 l-53 7 16 -37z"/>
<path d="M2079 1139 c-26 -4 -56 -12 -67 -18 -20 -11 -67 -99 -58 -108 10 -10
74 8 107 30 33 22 74 80 67 95 -1 4 -24 5 -49 1z"/>
<path d="M4600 925 c-7 -8 -8 -15 -2 -15 5 0 15 7 22 15 7 8 8 15 2 15 -5 0
-15 -7 -22 -15z"/>
<path d="M920 828 l0 -73 35 0 c37 0 49 18 15 23 -17 3 -20 11 -20 63 0 46 -3
59 -15 59 -12 0 -15 -15 -15 -72z"/>
<path d="M1012 828 c2 -46 7 -73 16 -76 9 -3 12 16 12 72 0 62 -3 76 -15 76
-13 0 -15 -12 -13 -72z"/>
<path d="M1072 828 l3 -73 35 3 c44 4 62 25 49 59 -5 14 -7 29 -4 34 13 21
-16 49 -51 49 l-35 0 3 -72z m55 29 c-6 -20 -27 -19 -27 2 0 14 5 19 15 14 9
-3 14 -10 12 -16z m8 -57 c0 -8 -8 -16 -17 -18 -13 -2 -18 3 -18 18 0 15 5 20
18 18 9 -2 17 -10 17 -18z"/>
<path d="M1180 831 l0 -68 37 -6 c38 -6 53 -2 53 14 0 5 -14 9 -31 9 -24 0
-30 4 -27 18 2 10 14 18 31 20 37 4 34 22 -4 22 -24 0 -30 4 -27 18 2 10 14
18 31 20 44 5 31 22 -18 22 l-45 0 0 -69z"/>
<path d="M1290 831 c0 -52 4 -70 15 -75 11 -4 15 2 15 27 l0 31 32 -34 c20
-23 33 -30 36 -22 2 7 -3 21 -12 31 -15 16 -15 19 4 36 39 35 12 75 -51 75
l-39 0 0 -69z m69 40 c12 -8 12 -12 2 -25 -20 -24 -41 -19 -41 9 0 26 14 31
39 16z"/>
<path d="M1410 891 c0 -5 6 -11 12 -13 8 -3 13 -26 13 -63 0 -38 4 -60 13 -62
9 -4 12 12 12 56 0 46 4 63 15 67 28 11 15 24 -25 24 -22 0 -40 -4 -40 -9z"/>
<path d="M1524 865 c-7 -19 -20 -51 -28 -70 -17 -40 -7 -53 19 -25 23 26 50
25 76 -1 11 -11 23 -18 26 -15 10 9 -51 146 -65 146 -7 0 -20 -16 -28 -35z
m40 -31 c9 -22 8 -24 -9 -24 -8 0 -15 9 -15 20 0 24 15 27 24 4z"/>
<path d="M1630 831 c0 -63 2 -69 22 -74 56 -15 108 19 108 70 0 48 -29 73 -85
73 l-45 0 0 -69z m81 39 c22 -12 26 -59 7 -78 -7 -7 -22 -12 -35 -12 -20 0
-23 5 -23 43 0 58 11 68 51 47z"/>
<path d="M3564 820 c-29 -73 -28 -96 3 -61 20 24 61 28 69 6 4 -8 14 -15 24
-15 16 0 15 6 -10 68 -16 37 -35 68 -43 70 -10 2 -24 -20 -43 -68z m56 -6 c0
-8 -7 -14 -15 -14 -17 0 -18 2 -9 24 7 18 24 12 24 -10z"/>
<path d="M3690 825 c0 -53 3 -66 19 -75 28 -14 38 -13 61 10 26 26 30 130 5
130 -11 0 -15 -12 -15 -47 0 -27 -4 -54 -9 -62 -16 -26 -31 0 -31 55 0 41 -4
54 -15 54 -12 0 -15 -14 -15 -65z"/>
<path d="M3800 880 c0 -5 7 -10 15 -10 12 0 15 -13 15 -60 0 -47 3 -60 15 -60
12 0 15 13 15 60 0 47 3 60 15 60 8 0 15 5 15 10 0 6 -20 10 -45 10 -25 0 -45
-4 -45 -10z"/>
<path d="M3920 870 c-24 -24 -26 -67 -5 -97 31 -44 111 -37 134 13 16 35 14
48 -10 78 -26 33 -88 37 -119 6z m101 -32 c8 -14 6 -25 -6 -44 -18 -28 -41
-31 -67 -7 -24 21 -23 48 3 66 25 18 56 11 70 -15z"/>
<path d="M4080 820 c0 -54 3 -70 14 -70 10 0 16 13 18 42 l3 42 28 -42 c42
-64 57 -56 57 28 0 54 -3 70 -14 70 -10 0 -16 -13 -18 -42 l-3 -42 -29 42
c-43 62 -56 56 -56 -28z"/>
<path d="M4242 867 c-37 -39 -28 -88 20 -113 36 -18 70 -12 98 18 26 28 25 58
-1 92 -27 35 -86 36 -117 3z m86 -13 c12 -8 22 -22 22 -31 0 -21 -29 -53 -48
-53 -22 0 -52 30 -52 51 0 16 34 49 50 49 3 0 16 -7 28 -16z"/>
<path d="M4400 821 c0 -55 3 -71 14 -71 10 0 16 14 18 43 l3 42 14 -43 c18
-55 39 -52 60 8 l16 45 3 -47 c2 -34 7 -48 18 -48 11 0 14 16 14 70 0 64 -2
70 -20 70 -12 0 -24 -9 -29 -22 -5 -13 -15 -36 -21 -53 l-12 -30 -17 50 c-13
37 -23 51 -39 53 -21 3 -22 0 -22 -67z"/>
<path d="M4582 822 l0 -70 30 -4 c22 -4 36 1 47 14 21 24 52 23 74 -3 31 -35
32 -12 3 61 -20 49 -33 70 -43 68 -8 -2 -26 -31 -40 -65 -14 -35 -29 -63 -33
-63 -4 0 -7 28 -6 62 1 51 -2 63 -16 66 -14 3 -16 -7 -16 -66z m128 -14 c0 -5
-7 -8 -15 -8 -15 0 -20 21 -8 33 7 7 23 -11 23 -25z"/>
<path d="M3060 595 c-7 -8 -8 -15 -2 -15 5 0 15 7 22 15 7 8 8 15 2 15 -5 0
-15 -7 -22 -15z"/>
<path d="M2250 550 c-29 -29 -24 -47 18 -69 25 -13 30 -41 7 -41 -8 0 -15 5
-15 10 0 6 -7 10 -15 10 -27 0 -13 -31 18 -43 30 -11 57 10 57 44 0 25 -6 33
-30 42 -16 6 -30 17 -30 24 0 16 22 17 37 2 8 -8 13 -7 18 2 5 7 1 17 -10 26
-25 17 -31 17 -55 -7z"/>
<path d="M2362 508 c-11 -29 -23 -61 -27 -70 -5 -13 -2 -18 8 -18 8 0 17 7 21
15 7 20 56 19 71 -1 6 -9 16 -15 22 -13 7 2 0 30 -16 72 -32 84 -50 87 -79 15z
m48 -18 c0 -11 -7 -20 -15 -20 -17 0 -18 2 -9 24 9 23 24 20 24 -4z"/>
<path d="M2480 490 l0 -70 33 0 c51 0 59 10 53 68 -6 66 -10 72 -52 72 l-34 0
0 -70z m57 33 c2 -6 -3 -13 -12 -16 -10 -5 -15 0 -15 14 0 21 21 22 27 2z m6
-50 c8 -7 -11 -33 -24 -33 -5 0 -9 9 -9 20 0 19 20 27 33 13z"/>
<path d="M2590 490 c0 -56 3 -70 15 -70 12 0 15 14 15 70 0 56 -3 70 -15 70
-12 0 -15 -14 -15 -70z"/>
<path d="M2650 490 l0 -70 45 0 c54 0 85 25 85 70 0 45 -31 70 -85 70 l-45 0
0 -70z m84 34 c31 -30 9 -84 -35 -84 -16 0 -19 7 -19 50 0 43 3 50 19 50 11 0
27 -7 35 -16z"/>
<path d="M2800 503 c0 -32 4 -63 8 -69 14 -20 45 -25 68 -9 21 13 24 23 24 75
0 46 -3 60 -15 60 -10 0 -15 -15 -17 -57 -2 -44 -7 -58 -18 -58 -11 0 -16 14
-18 58 -2 42 -7 57 -17 57 -12 0 -15 -14 -15 -57z"/>
<path d="M2924 490 c-1 -63 1 -70 19 -70 15 0 18 5 13 25 -4 14 -3 25 2 25 5
0 15 -11 22 -25 7 -14 22 -25 32 -25 17 0 17 1 2 25 -15 22 -15 26 0 40 37 37
12 75 -48 75 l-41 0 -1 -70z m74 29 c4 -19 -27 -34 -41 -20 -14 14 0 43 20 39
10 -2 19 -10 21 -19z"/>
<path d="M3050 490 c0 -56 3 -70 15 -70 12 0 15 14 15 70 0 56 -3 70 -15 70
-12 0 -15 -14 -15 -70z"/>
<path d="M3122 508 c-11 -29 -23 -61 -27 -70 -5 -13 -2 -18 8 -18 8 0 17 7 21
15 7 20 56 19 71 -1 6 -9 16 -15 22 -13 7 2 0 30 -16 72 -32 84 -50 87 -79 15z
m48 -18 c0 -11 -7 -20 -15 -20 -17 0 -18 2 -9 24 9 23 24 20 24 -4z"/>
</g>
</svg>
